<?xml version="1.0" encoding="utf-8"?>
<!-- Generator: Adobe Illustrator 16.0.0, SVG Export Plug-In . SVG Version: 6.00 Build 0)  -->
<!DOCTYPE svg PUBLIC "-//W3C//DTD SVG 1.1//EN" "http://www.w3.org/Graphics/SVG/1.1/DTD/svg11.dtd">
<svg version="1.1" id="Layer_1" xmlns="http://www.w3.org/2000/svg" xmlns:xlink="http://www.w3.org/1999/xlink" x="0px" y="0px"
	 width="331.514px" height="99.764px" viewBox="0 0 331.514 99.764" enable-background="new 0 0 331.514 99.764"
	 xml:space="preserve">
<g>
	<path fill="#96A73A" d="M4.962,51.535c-0.775,0-1.564-0.184-2.299-0.57c-2.433-1.273-3.367-4.274-2.095-6.705L13.578,19.43
		c0.807-1.541,2.363-2.547,4.099-2.653c1.7-0.102,3.397,0.702,4.39,2.133l5.106,7.39L36.281,3.15
		c0.686-1.745,2.299-2.954,4.166-3.128c1.867-0.176,3.67,0.721,4.666,2.31l10.49,16.751l7.459-7.759
		c1.898-1.976,5.042-2.041,7.023-0.137c1.977,1.9,2.041,5.045,0.141,7.023L58.353,30.558c-1.061,1.104-2.568,1.658-4.094,1.498
		c-1.521-0.157-2.888-1.008-3.698-2.305L41.92,15.955l-8.91,22.652c-0.671,1.707-2.23,2.904-4.054,3.116
		c-1.818,0.207-3.613-0.601-4.654-2.109l-5.736-8.296L9.369,48.871C8.482,50.565,6.75,51.535,4.962,51.535L4.962,51.535z"/>
	<g>
		<path fill="#6A7072" d="M52.962,64.393c0,7.344-5.951,13.299-13.297,13.299c-7.348,0-13.3-5.955-13.3-13.299
			c0-7.345,5.952-13.3,13.3-13.3C47.011,51.093,52.962,57.048,52.962,64.393z"/>
		<path fill="#6A7072" d="M37.586,99.764c-19.539,0-35.438-15.895-35.438-35.434c0-2.744,2.225-4.967,4.971-4.967
			c2.742,0,4.967,2.223,4.967,4.967c0,14.059,11.439,25.5,25.501,25.5c13.85,0,23.293-5.814,28.063-17.275
			c3.617-8.684,0.42-22.605-2.236-27.323c-1.348-2.392-0.499-5.42,1.891-6.768c2.395-1.346,5.421-0.498,6.766,1.894
			c4.171,7.405,7.551,24.494,2.754,36.016C68.543,91.458,55.32,99.764,37.586,99.764L37.586,99.764z"/>
	</g>
</g>
<g>
	<path fill="#6A7072" d="M154.106,39.333c-0.331,0.579-0.683,1-1.055,1.262s-0.834,0.393-1.385,0.393
		c-0.579,0-1.206-0.213-1.881-0.641c-0.676-0.428-1.482-0.903-2.419-1.427c-0.938-0.523-2.033-0.999-3.288-1.427
		c-1.254-0.427-2.736-0.641-4.445-0.641c-1.544,0-2.895,0.186-4.053,0.558c-1.158,0.372-2.129,0.89-2.915,1.551
		c-0.786,0.662-1.372,1.454-1.757,2.378c-0.386,0.924-0.579,1.937-0.579,3.039c0,1.406,0.393,2.578,1.179,3.515
		c0.786,0.938,1.826,1.737,3.122,2.398c1.295,0.662,2.771,1.255,4.424,1.778s3.35,1.082,5.086,1.675
		c1.737,0.593,3.432,1.281,5.086,2.067c1.654,0.785,3.128,1.778,4.424,2.978c1.295,1.199,2.336,2.667,3.122,4.403
		c0.786,1.737,1.178,3.846,1.178,6.327c0,2.701-0.462,5.23-1.385,7.588c-0.924,2.356-2.274,4.41-4.052,6.161
		c-1.778,1.751-3.949,3.129-6.513,4.135c-2.563,1.006-5.5,1.509-8.808,1.509c-1.902,0-3.777-0.186-5.624-0.558
		c-1.847-0.372-3.618-0.902-5.313-1.592s-3.288-1.516-4.776-2.481c-1.488-0.965-2.812-2.04-3.969-3.226l3.267-5.334
		c0.275-0.386,0.634-0.709,1.075-0.972c0.44-0.262,0.91-0.393,1.406-0.393c0.688,0,1.433,0.283,2.233,0.848
		c0.799,0.565,1.75,1.192,2.853,1.881c1.103,0.689,2.392,1.317,3.866,1.882c1.475,0.565,3.246,0.848,5.314,0.848
		c3.169,0,5.624-0.751,7.36-2.254c1.736-1.502,2.605-3.659,2.605-6.471c0-1.571-0.393-2.854-1.179-3.846s-1.826-1.826-3.122-2.502
		c-1.296-0.675-2.771-1.247-4.425-1.716c-1.654-0.469-3.336-0.979-5.045-1.53c-1.709-0.551-3.391-1.213-5.044-1.984
		c-1.654-0.771-3.129-1.778-4.425-3.019c-1.296-1.241-2.336-2.792-3.122-4.652s-1.179-4.155-1.179-6.885
		c0-2.178,0.434-4.301,1.303-6.368c0.868-2.067,2.129-3.9,3.783-5.5c1.654-1.598,3.694-2.88,6.12-3.845
		c2.425-0.965,5.21-1.447,8.353-1.447c3.529,0,6.782,0.552,9.759,1.653c2.978,1.104,5.513,2.646,7.609,4.632L154.106,39.333z"/>
	<path fill="#6A7072" d="M174.081,28.52c0.345,0.041,0.647,0.124,0.91,0.248c0.262,0.124,0.517,0.304,0.765,0.537
		c0.248,0.234,0.523,0.545,0.827,0.931l31.343,40.027c-0.082-0.965-0.151-1.916-0.207-2.854c-0.055-0.937-0.082-1.805-0.082-2.604
		V28.458h9.801V88.25h-5.707c-0.883,0-1.619-0.145-2.213-0.435c-0.592-0.289-1.164-0.778-1.715-1.468l-31.22-39.82
		c0.083,0.883,0.145,1.758,0.186,2.626s0.062,1.661,0.062,2.377v36.72h-9.8V28.458h5.831
		C173.33,28.458,173.736,28.478,174.081,28.52z"/>
	<path fill="#6A7072" d="M282.639,88.25h-8.602c-0.965,0-1.75-0.241-2.356-0.724s-1.062-1.082-1.364-1.799L265.85,73.53h-24.769
		l-4.466,12.198c-0.221,0.635-0.648,1.214-1.281,1.736c-0.635,0.524-1.421,0.786-2.357,0.786h-8.684l23.528-59.793h11.33
		L282.639,88.25z M243.934,65.673h19.063l-7.278-19.89c-0.358-0.882-0.73-1.923-1.116-3.122s-0.772-2.502-1.157-3.908
		c-0.387,1.406-0.766,2.716-1.138,3.929c-0.372,1.214-0.737,2.274-1.096,3.184L243.934,65.673z"/>
	<path fill="#6A7072" d="M299.963,67.203V88.25H288.84V28.458h19.436c3.996,0,7.456,0.469,10.379,1.406
		c2.922,0.938,5.334,2.247,7.236,3.928c1.902,1.682,3.314,3.694,4.238,6.037c0.923,2.344,1.385,4.907,1.385,7.691
		c0,2.895-0.482,5.548-1.447,7.96c-0.965,2.413-2.412,4.486-4.342,6.224c-1.93,1.736-4.349,3.088-7.257,4.052
		c-2.909,0.966-6.306,1.447-10.192,1.447H299.963z M299.963,58.519h8.312c2.039,0,3.817-0.254,5.334-0.765
		c1.516-0.51,2.777-1.24,3.783-2.191s1.758-2.109,2.254-3.474s0.744-2.888,0.744-4.569c0-1.599-0.248-3.046-0.744-4.342
		c-0.496-1.295-1.24-2.398-2.233-3.308c-0.992-0.91-2.247-1.605-3.763-2.089c-1.517-0.481-3.309-0.724-5.375-0.724h-8.312V58.519z"
		/>
</g>
</svg>
